
<svg xmlns="http://www.w3.org/2000/svg" class="img-fluid" id="outputsvg" viewBox="0 0 10000 10000">
  <rect width="100%" height="100%" fill="rgb(32,32,32)"/>
  <g id="l1aduG4SxoTD8y2E4wkUuaq" fill="rgb(255,255,255)" style="transform: none;">
      <g style="transform: none;">
        <path id="p15yR2V3dZ" d="M6279 7407 c-19 -4 -234 -10 -479 -11 -411 -4 -449 -5 -495 -23 -44 -17 -53 -26 -76 -73 l-27 -53 -3 -506 c-5 -743 -5 -745 9 -879 19 -180 8 -203 -113 -231 -66 -15 -226 7 -285 40 -38 22 -46 35 -64 109 -11 44 -30 570 -26 725 2 83 3 193 2 245 0 52 0 151 1 220 4 275 2 319 -19 346 -10 15 -37 36 -60 48 -39 21 -52 22 -240 19 -109 -1 -208 -2 -219 -3 -83 -3 -817 11 -1060 21 -331 13 -422 7 -475 -31 -42 -30 -47 -43 -59 -152 -14 -122 -14 -905 -1 -1013 5 -44 15 -123 22 -175 14 -105 15 -358 3 -575 l-7 -140 28 -31 29 -31 165 -6 c91 -3 222 -3 291 0 97 5 149 2 224 -12 82 -14 128 -16 269 -11 94 4 189 7 211 7 22 0 122 -2 223 -3 l183 -3 34 -36 c61 -67 54 -149 -15 -179 -24 -10 -665 -28 -1160 -33 -102 -1 -240 -6 -308 -11 -167 -12 -167 -12 -168 -148 -1 -56 -7 -157 -15 -223 -10 -90 -13 -311 -14 -870 l0 -750 30 -60 c23 -47 39 -64 69 -79 43 -21 58 -22 501 -20 127 0 507 0 845 0 682 0 658 -2 699 65 29 47 45 175 36 287 -4 53 -8 370 -10 705 l-4 607 24 29 24 28 153 5 c162 6 187 2 213 -38 37 -58 44 -135 34 -388 -22 -556 -27 -827 -16 -868 7 -30 7 -69 -1 -137 -16 -128 -15 -167 4 -204 9 -18 20 -39 24 -47 3 -8 26 -25 51 -37 36 -18 61 -22 144 -23 55 0 133 7 172 15 86 18 352 21 643 7 107 -5 218 -7 245 -3 47 6 285 0 565 -14 82 -5 140 -3 170 5 25 6 56 14 70 17 36 8 78 51 91 92 8 24 12 213 15 561 2 289 5 581 8 650 6 154 -10 643 -23 724 -8 46 -18 67 -43 93 -49 51 -83 56 -332 48 -122 -4 -264 -8 -316 -10 -348 -10 -671 -24 -687 -29 -32 -10 -276 9 -308 25 -35 17 -75 82 -75 123 0 40 35 110 63 124 61 30 230 39 392 22 50 -6 176 -12 280 -15 105 -3 305 -10 446 -16 280 -13 441 -9 479 11 42 21 79 61 92 99 15 46 15 460 -1 656 -14 172 -14 531 -1 622 26 181 35 313 32 482 -2 173 -4 188 -27 237 -23 49 -28 53 -87 73 -61 20 -81 21 -509 19 -245 -1 -461 -6 -480 -11z m-1980 -451 c28 -26 38 -50 58 -145 12 -59 13 -86 4 -125 -6 -29 -13 -233 -16 -476 -4 -268 -10 -439 -17 -463 -6 -21 -27 -51 -45 -68 l-34 -29 -307 5 c-169 2 -372 0 -451 -6 -196 -13 -402 -14 -426 -1 -11 5 -31 22 -44 36 -22 23 -24 34 -23 104 2 43 7 94 13 113 6 19 13 145 14 294 2 143 8 298 14 345 7 59 6 119 -1 196 -13 124 -7 153 39 196 24 22 29 23 176 20 175 -4 800 16 897 27 81 10 119 5 149 -23z m2319 -4 l234 -7 22 -26 c22 -25 23 -38 32 -270 5 -134 7 -302 4 -374 -5 -158 -4 -251 5 -415 6 -115 5 -128 -14 -157 -14 -22 -33 -35 -60 -43 -51 -13 -576 -14 -651 0 -34 6 -140 6 -280 1 -202 -7 -229 -6 -260 9 l-35 17 -6 89 c-3 49 -3 217 -1 374 3 157 5 385 6 506 1 207 2 223 21 244 38 41 68 50 187 51 62 1 127 5 143 10 29 8 123 6 653 -9z m-1553 -1702 c82 -8 93 -12 117 -39 49 -55 50 -167 0 -221 -32 -34 -70 -38 -259 -25 l-113 8 -35 38 c-29 33 -35 47 -35 84 0 141 83 181 325 155z m1753 -699 c12 -1 39 -16 58 -34 l37 -33 -9 -575 -9 -574 -24 -32 c-22 -29 -29 -32 -101 -38 -43 -4 -309 -4 -592 0 -478 6 -514 8 -532 25 -17 17 -18 48 -21 599 l-4 582 24 27 c21 25 32 28 117 34 51 4 116 11 143 15 38 6 767 9 913 4z m-3438 -21 c175 1 762 8 808 9 36 1 81 -18 102 -45 24 -27 36 -225 27 -407 -5 -89 -9 -291 -10 -449 -2 -274 -3 -288 -23 -315 -38 -51 -51 -53 -406 -64 -386 -12 -327 -12 -592 -2 -264 10 -246 -5 -248 208 0 83 0 232 1 331 2 143 -1 195 -15 245 -14 53 -15 94 -11 241 9 247 22 271 149 256 40 -5 138 -9 218 -8z"></path>
      </g>
  </g>
</svg>